<?xml version="1.0" encoding="utf-8"?>
<!-- Svg Vector Icons : http://www.onlinewebfonts.com/icon -->
<!DOCTYPE svg PUBLIC "-//W3C//DTD SVG 1.1//EN" "http://www.w3.org/Graphics/SVG/1.1/DTD/svg11.dtd">
<svg version="1.1" xmlns="http://www.w3.org/2000/svg" xmlns:xlink="http://www.w3.org/1999/xlink" x="0px" y="0px" viewBox="0 0 1000 1000"  enable-background="new 0 0 1000 1000" xml:space="preserve">
<metadata> Svg Vector Icons : http://www.onlinewebfonts.com/icon </metadata>
<g><g fill="green" transform="translate(0.000000,511.000000) scale(0.100000,-0.100000)"><path fill="#effdfc" d="M4319.9,4975.1C2341.1,4686.4,736.3,3252,241.7,1330C139.9,944.2,116.2,743,104.4,229.4c-9.5-400-4.7-568.1,26-781.1C355.3-2102,1264.2-3429.9,2622.8-4185c504.2-281.7,1124.3-485.2,1723.1-570.4c409.5-56.8,1027.2-35.5,1432,49.7c1455.7,303,2591.8,1174,3207.2,2459.3c234.3,485.2,357.4,899.4,428.4,1434.4c52.1,392.9,33.1,1020.2-37.9,1361c-421.3,1993-2142.1,3422.6-4120.9,3420.2C3517.5,3966.8,1988.5,2899.3,1437,1304C1280.7,847.2,1245.2,612.9,1245.2,40c0-442.6,7.1-542,54.4-766.9c161-750.3,504.2-1389.4,1022.5-1907.8c407.1-407.1,859.2-688.8,1382.3-863.9c1713.7-575.2,3529.1,146.8,4288.9,1704.2c149.1,307.7,224.9,525.5,295.9,863.9c75.7,352.7,75.7,946.8,2.4,1294.7c-267.5,1240.3-1202.4,2168.1-2468.7,2447.4c-314.8,71-845,75.7-1164.5,14.2c-596.5-118.3-1077-381.1-1507.8-819c-575.2-587-861.6-1335-821.3-2144.5c61.5-1204.8,878.1-2161,2054.5-2402.4c319.5-66.3,852.1-56.8,1138.5,18.9c811.9,217.8,1408.3,790.6,1642.6,1583.5c75.7,258,101.8,693.5,56.8,970.4c-111.3,695.9-544.4,1290-1143.2,1569.3c-262.7,125.4-492.3,172.8-821.3,172.8c-392.9,2.4-679.3-73.4-1010.7-269.8c-184.6-108.9-497.1-426-605.9-613c-281.7-487.6-303-1072.2-59.2-1585.9c130.2-269.8,397.6-544.4,658-672.2c321.9-156.2,653.3-194.1,979.9-108.9c516,132.5,866.3,518.4,937.3,1036.7c52.1,381.1-99.4,750.3-390.5,951.5c-347.9,239.1-887.6,213-1112.5-52.1c-248.5-291.1-203.6-733.7,87.6-885.2c132.5-68.7,336.1-14.2,364.5,97c11.8,49.7,168.1,201.2,262.7,258c42.6,23.7,101.8-108.9,101.8-227.2c-2.4-203.6-153.9-409.5-352.7-480.5c-132.5-45-343.2-45-480.5,2.3C4272.6-651.1,4040.6-154,4154.2,264.9c127.8,482.9,518.4,776.4,1032,778.7c665.1,2.4,1181.1-409.5,1316-1050.9c108.9-508.9-89.9-1088.8-494.7-1455.7c-177.5-160.9-506.5-331.4-738.5-378.7c-217.8-45-563.3-45-776.4,2.4c-94.7,18.9-276.9,87.6-407.1,151.5c-378.7,182.3-660.4,473.4-849.7,878.1c-125.5,262.7-161,421.3-172.8,774c-11.8,265.1-4.7,347.9,37.9,537.3c142,610.7,558.6,1121.9,1148,1408.3c371.6,179.9,568.1,224.9,1008.3,222.5c307.7,0,400-9.5,568.1-54.4c643.8-172.8,1169.3-591.7,1488.8-1185.8c317.2-591.7,385.8-1368.1,175.1-2011.9c-213-655.7-703-1233.2-1301.8-1536.2c-402.4-201.2-788.2-291.1-1261.6-293.5c-511.3-2.4-885.2,82.8-1339.7,302.9c-1006,490-1619,1486.4-1619,2636.8c0,534.9,97,958.6,329,1434.4c440.3,901.8,1233.2,1519.6,2229.7,1744.4c324.3,71,1005.9,78.1,1323.1,11.8c1436.7-300.6,2492.4-1337.3,2797.7-2745.7c45-203.6,52.1-314.8,52.1-714.8c0-402.4-7.1-511.3-52.1-721.9c-170.4-788.2-497.1-1396.5-1043.8-1940.9c-527.8-525.5-1110.1-852.1-1813.1-1013c-516-118.4-1169.3-130.2-1680.5-28.4C2869-3737.6,1822.8-2928.1,1278.4-1787.2C587.2-343.4,774.2,1389.2,1758.9,2646.1c203.5,260.4,617.8,660.4,871,840.3C4469,4797.6,6923.6,4568,8499.9,2937.2c295.9-307.7,468.7-527.8,669.8-866.3c291.1-480.5,487.6-1022.5,584.6-1593c59.2-345.6,71-961,26-1301.8c-14.2-104.2-30.8-227.2-37.9-272.2c-4.7-45,9.5-2.3,33.1,94.7c165.7,655.6,165.7,1519.6,0,2232C9314.2,3207,7654.9,4710,5640.7,4975.1C5314,5017.7,4620.5,5017.7,4319.9,4975.1z"/></g></g>
</svg>
